<svg width="81" height="98" viewBox="0 0 81 98" fill="none" xmlns="http://www.w3.org/2000/svg">
<g opacity="0.33">
<rect x="3" width="75" height="75" rx="20" fill="#B6CAFB"/>
<path fill-rule="evenodd" clip-rule="evenodd" d="M63.0425 33.3253H52.3478C51.4219 29.8764 48.7259 27.1837 45.2758 26.262L45.0592 24.5287L47.8065 24C48.5175 23.8695 49.1266 23.4142 49.4531 22.7693C49.7646 22.1416 49.7299 21.3975 49.3613 20.8014C48.9928 20.2054 48.3426 19.8419 47.6418 19.84H44.4872V19.7273C44.3386 18.4758 43.2775 17.5331 42.0171 17.5331C40.7568 17.5331 39.6957 18.4758 39.5471 19.7273V19.8487H36.3578C35.657 19.8505 35.0069 20.2141 34.6383 20.8101C34.2697 21.4061 34.235 22.1502 34.5465 22.778C34.8751 23.4196 35.4839 23.8714 36.1931 24L38.9405 24.5027L38.7238 26.236C35.2737 27.1577 32.5777 29.8504 31.6518 33.2993H20.9485C19.855 33.3268 18.9731 34.203 18.9385 35.2963C18.904 36.3895 19.7289 37.3197 20.8185 37.416L22.6731 37.5287C22.4542 37.9366 22.3382 38.3917 22.3351 38.8547C22.3351 40.4534 23.6311 41.7493 25.2298 41.7493C26.8285 41.7493 28.1245 40.4534 28.1245 38.8547C28.1171 38.5161 28.0496 38.1816 27.9251 37.8667L31.5218 38.0833C32.4665 43.1967 36.9038 47.192 41.9998 47.192C47.0958 47.192 51.5331 43.2053 52.4778 38.0833L56.0658 37.8667C55.9422 38.1909 55.8748 38.5338 55.8665 38.8807C55.8665 40.4794 57.1625 41.7753 58.7612 41.7753C60.3598 41.7753 61.6558 40.4794 61.6558 38.8807C61.6528 38.4177 61.5368 37.9626 61.3178 37.5547L63.1725 37.442C64.2621 37.3457 65.0869 36.4155 65.0524 35.3223C65.0179 34.229 64.136 33.3528 63.0425 33.3253ZM25.2298 40.042C24.5896 40.0372 24.074 39.5152 24.0772 38.8749C24.0803 38.2347 24.6011 37.7178 25.2414 37.7194C25.8816 37.721 26.3998 38.2404 26.3998 38.8807C26.3998 39.1902 26.2763 39.4869 26.0566 39.7049C25.8369 39.923 25.5393 40.0443 25.2298 40.042ZM57.6085 38.8807C57.6085 39.5221 58.1284 40.042 58.7698 40.042C59.4112 40.042 59.9311 39.5221 59.9311 38.8807C59.9311 38.2393 59.4112 37.7193 58.7698 37.7193C58.1284 37.7193 57.6085 38.2393 57.6085 38.8807ZM47.6418 21.608C47.7423 21.6052 47.8359 21.6587 47.8845 21.7467C47.9356 21.8352 47.9356 21.9442 47.8845 22.0327C47.8036 22.1903 47.6522 22.2998 47.4771 22.3273L44.8338 22.8127L44.6865 21.608H47.6418ZM36.0978 22.0327C36.1787 22.1903 36.3301 22.2998 36.5051 22.3273L39.1311 22.8127L39.2785 21.608H36.3405C36.24 21.6052 36.1464 21.6587 36.0978 21.7467C36.0467 21.8352 36.0467 21.9442 36.0978 22.0327ZM41.2458 19.9613C41.3025 19.5887 41.6229 19.3133 41.9998 19.3133C42.3768 19.3133 42.6972 19.5887 42.7538 19.9613L43.4905 25.9067C42.5008 25.7795 41.4989 25.7795 40.5091 25.9067L41.2458 19.9613ZM20.6191 35.388C20.6189 35.5586 20.7522 35.6995 20.9225 35.7087L31.3485 36.324V35.9253V35.0587H20.9485C20.7666 35.0587 20.6191 35.2061 20.6191 35.388ZM41.9998 45.4587C37.2331 45.4587 33.0471 41.004 33.0471 35.9253C33.0471 31.15 36.8951 27.5533 41.9998 27.5533C47.1045 27.5533 50.9525 31.15 50.9525 35.9253C50.9525 41.004 46.7665 45.4587 41.9998 45.4587ZM52.6772 36.3327L63.0771 35.7087C63.1637 35.711 63.2475 35.6783 63.3095 35.6179C63.3715 35.5575 63.4065 35.4746 63.4065 35.388C63.4065 35.3007 63.3718 35.2169 63.31 35.1551C63.2483 35.0934 63.1645 35.0587 63.0771 35.0587H52.6772V35.9253V36.3327Z" fill="#3D3D63"/>
<path fill-rule="evenodd" clip-rule="evenodd" d="M38.1946 31.3147H45.8039C46.4541 31.3016 47.073 31.5934 47.4766 32.1034C48.1 32.8661 48.5549 33.7522 48.8112 34.7034C48.9816 35.3431 48.8438 36.0258 48.4386 36.5494C48.0458 37.0663 47.4325 37.3681 46.7832 37.364H37.2499C36.6007 37.3681 35.9874 37.0663 35.5946 36.5494C35.1894 36.0258 35.0515 35.3431 35.2219 34.7034C35.4783 33.7522 35.9331 32.8661 36.5566 32.1034C36.9527 31.6031 37.5565 31.3124 38.1946 31.3147ZM43.2039 35.648V33.048H40.8206V35.648H43.2039ZM36.9899 35.5007C36.913 35.4026 36.8902 35.2725 36.9292 35.154C37.1214 34.4362 37.4608 33.7662 37.9259 33.1867C37.9999 33.1006 38.1071 33.0502 38.2206 33.048H39.0872V35.648H37.2499C37.1369 35.646 37.0312 35.5916 36.9639 35.5007H36.9899ZM46.7746 35.6394C46.8861 35.6394 46.9915 35.5883 47.0606 35.5007H47.0346C47.1043 35.3985 47.1173 35.268 47.0693 35.154C46.8792 34.4328 46.5396 33.7596 46.0726 33.178C45.9986 33.092 45.8914 33.0415 45.7779 33.0394H44.9113V35.6394H46.7746Z" fill="#3D3D63"/>
<path d="M60.4868 46.0393C57.1841 46.04 54.1201 47.7608 52.4008 50.5806C51.6862 50.2516 50.9082 50.083 50.1215 50.0866C47.4277 50.0905 45.1339 52.0466 44.7048 54.706H44.4448C43.9661 54.706 43.5781 55.094 43.5781 55.5726C43.5781 56.0513 43.9661 56.4393 44.4448 56.4393H45.4675C45.9461 56.4393 46.3341 56.0513 46.3341 55.5726C46.3381 54.1794 47.1118 52.9025 48.345 52.2541C49.5782 51.6057 51.0688 51.6921 52.2188 52.4786C52.68 52.7977 53.0648 53.2151 53.3455 53.7006C53.5009 53.9699 53.7886 54.1352 54.0995 54.134C54.2521 54.1324 54.4016 54.0905 54.5328 54.0126C54.9423 53.7717 55.0815 53.246 54.8448 52.834C54.5685 52.3612 54.2239 51.9319 53.8221 51.56C55.2198 49.21 57.7526 47.7707 60.4868 47.7726C60.9654 47.7726 61.3535 47.3846 61.3535 46.906C61.3535 46.4273 60.9654 46.0393 60.4868 46.0393V46.0393Z" fill="#3D3D63"/>
<path d="M40.8465 54.706H39.3212C38.8959 52.048 36.605 50.0912 33.9132 50.0867C33.1264 50.0831 32.3484 50.2517 31.6338 50.5807C29.9081 47.7502 26.8282 46.0279 23.5132 46.0394C23.0345 46.0394 22.6465 46.4274 22.6465 46.906C22.6465 47.3847 23.0345 47.7727 23.5132 47.7727C26.2473 47.7708 28.7801 49.2101 30.1778 51.56C29.776 51.932 29.4314 52.3613 29.1552 52.834C28.9185 53.246 29.0576 53.7718 29.4672 54.0127C29.5984 54.0906 29.7479 54.1324 29.9005 54.134C30.2113 54.1353 30.4991 53.9699 30.6545 53.7007C30.9352 53.2151 31.3199 52.7978 31.7812 52.4787C32.8011 51.7798 34.0998 51.6282 35.2533 52.0733C36.4068 52.5184 37.2671 53.5032 37.5532 54.706H37.3798C36.9012 54.706 36.5132 55.094 36.5132 55.5727C36.5132 56.0513 36.9012 56.4394 37.3798 56.4394H40.8465C41.3251 56.4394 41.7132 56.0513 41.7132 55.5727C41.7132 55.094 41.3251 54.706 40.8465 54.706Z" fill="#3D3D63"/>
<path d="M9.31 93H7.21L6.622 91.236H2.716L2.128 93H0.042L3.472 83.2H5.866L9.31 93ZM4.676 85.426L3.332 89.43H6.02L4.676 85.426ZM15.2176 89.416C15.8709 89.7333 16.1976 90.2653 16.1976 91.012C16.1976 91.6093 15.9922 92.09 15.5816 92.454C15.1709 92.818 14.5969 93 13.8596 93H10.1776V86H13.5796C14.3076 86 14.8769 86.182 15.2876 86.546C15.6982 86.9007 15.9036 87.3767 15.9036 87.974C15.9036 88.59 15.6749 89.0707 15.2176 89.416ZM13.4116 87.484H11.8716V88.744H13.4116C13.9249 88.744 14.1816 88.534 14.1816 88.114C14.1816 87.694 13.9249 87.484 13.4116 87.484ZM11.8716 91.474H13.6496C14.1722 91.474 14.4336 91.25 14.4336 90.802C14.4336 90.606 14.3636 90.452 14.2236 90.34C14.0836 90.228 13.8922 90.172 13.6496 90.172H11.8716V91.474ZM16.4642 86H22.6662V87.736H20.4822V93H18.6762V87.736H16.4642V86ZM29.3213 92.132C28.6119 92.8413 27.7346 93.196 26.6893 93.196C25.6439 93.196 24.7666 92.8413 24.0573 92.132C23.3479 91.4227 22.9932 90.5453 22.9932 89.5C22.9932 88.464 23.3479 87.5913 24.0573 86.882C24.7759 86.1633 25.6533 85.804 26.6893 85.804C27.7253 85.804 28.6026 86.1633 29.3213 86.882C30.0399 87.6007 30.3993 88.4733 30.3993 89.5C30.3993 90.536 30.0399 91.4133 29.3213 92.132ZM25.3313 90.886C25.6953 91.25 26.1479 91.432 26.6893 91.432C27.2306 91.432 27.6833 91.25 28.0473 90.886C28.4113 90.522 28.5933 90.06 28.5933 89.5C28.5933 88.94 28.4113 88.478 28.0473 88.114C27.6833 87.75 27.2306 87.568 26.6893 87.568C26.1479 87.568 25.6953 87.75 25.3313 88.114C24.9766 88.4873 24.7993 88.9493 24.7993 89.5C24.7993 90.0507 24.9766 90.5127 25.3313 90.886ZM37.1718 86H38.9498V93H37.1998V88.912L35.4218 91.712H35.1978L33.4058 88.884V93H31.6698V86H33.4478L35.3098 88.94L37.1718 86ZM46.5615 92.132C45.8522 92.8413 44.9748 93.196 43.9295 93.196C42.8842 93.196 42.0068 92.8413 41.2975 92.132C40.5882 91.4227 40.2335 90.5453 40.2335 89.5C40.2335 88.464 40.5882 87.5913 41.2975 86.882C42.0162 86.1633 42.8935 85.804 43.9295 85.804C44.9655 85.804 45.8428 86.1633 46.5615 86.882C47.2802 87.6007 47.6395 88.4733 47.6395 89.5C47.6395 90.536 47.2802 91.4133 46.5615 92.132ZM42.5715 90.886C42.9355 91.25 43.3882 91.432 43.9295 91.432C44.4708 91.432 44.9235 91.25 45.2875 90.886C45.6515 90.522 45.8335 90.06 45.8335 89.5C45.8335 88.94 45.6515 88.478 45.2875 88.114C44.9235 87.75 44.4708 87.568 43.9295 87.568C43.3882 87.568 42.9355 87.75 42.5715 88.114C42.2168 88.4873 42.0395 88.9493 42.0395 89.5C42.0395 90.0507 42.2168 90.5127 42.5715 90.886ZM52.228 93.196C51.1267 93.196 50.2353 92.8413 49.554 92.132C48.882 91.4227 48.546 90.522 48.546 89.43C48.546 88.2447 48.7233 87.3253 49.078 86.672C49.4233 86.0187 50.1373 85.426 51.22 84.894C51.248 84.8753 51.2993 84.8473 51.374 84.81C51.458 84.7727 51.542 84.7353 51.626 84.698C51.7193 84.6607 51.808 84.6233 51.892 84.586L52.48 84.292C52.62 84.2267 52.7693 84.1427 52.928 84.04C53.1613 83.9 53.334 83.7553 53.446 83.606C53.558 83.4567 53.6793 83.2327 53.81 82.934L55.294 83.788C55.1727 84.3573 54.8973 84.8007 54.468 85.118C54.0293 85.4353 53.3947 85.7527 52.564 86.07C51.9853 86.294 51.556 86.5227 51.276 86.756C50.996 86.9893 50.7953 87.274 50.674 87.61C51.1873 87.078 51.8873 86.812 52.774 86.812C53.558 86.812 54.2487 87.0967 54.846 87.666C55.4527 88.226 55.756 88.9727 55.756 89.906C55.756 90.8673 55.4293 91.656 54.776 92.272C54.132 92.888 53.2827 93.196 52.228 93.196ZM52.2 88.254C51.7333 88.254 51.3227 88.3987 50.968 88.688C50.6133 88.9867 50.436 89.374 50.436 89.85C50.436 90.3447 50.604 90.7507 50.94 91.068C51.2853 91.3853 51.71 91.544 52.214 91.544C52.7273 91.544 53.1427 91.39 53.46 91.082C53.7867 90.774 53.95 90.382 53.95 89.906C53.95 89.43 53.7867 89.038 53.46 88.73C53.1333 88.4127 52.7133 88.254 52.2 88.254ZM58.6173 89.976L61.9073 86H63.2513V93H61.4873V89.024L58.1973 93H56.8533V86H58.6173V89.976ZM65.3681 86H70.9121V93H69.1061V87.736H67.1741V90.074C67.1741 92.23 66.1894 93.2053 64.2201 93V91.306C64.5934 91.3993 64.8781 91.334 65.0741 91.11C65.2701 90.886 65.3681 90.508 65.3681 89.976V86ZM74.3127 89.976L77.6027 86H78.9467V93H77.1827V89.024L73.8927 93H72.5487V86H74.3127V89.976Z" fill="#4A4A4A"/>
</g>
</svg>
