<svg width="102" height="98" viewBox="0 0 102 98" fill="none" xmlns="http://www.w3.org/2000/svg">
<rect x="14" width="75" height="75" rx="20" fill="#B4E2E1"/>
<path fill-rule="evenodd" clip-rule="evenodd" d="M50.9564 50.5454V45.39C50.9564 44.9632 50.6104 44.6171 50.1835 44.6171H40.6921C40.2652 44.6171 39.9192 44.9632 39.9192 45.39V50.5454C39.5504 50.6167 39.2863 50.9428 39.2931 51.3183C39.2931 51.7452 39.6391 52.0912 40.066 52.0912H50.8173C51.2442 52.0912 51.5902 51.7452 51.5902 51.3183C51.5964 50.9404 51.3283 50.6134 50.9564 50.5454ZM44.6649 50.5454H41.465V46.163H44.6649V50.5454ZM46.2107 50.5454H49.4106V46.163H46.2107V50.5454Z" fill="#3D3D63"/>
<path d="M57.773 51.2874C58.298 51.2874 58.7236 50.8617 58.7236 50.3367C58.7236 49.8116 58.298 49.386 57.773 49.386C57.2479 49.386 56.8223 49.8116 56.8223 50.3367C56.8223 50.8617 57.2479 51.2874 57.773 51.2874Z" fill="#3D3D63"/>
<path fill-rule="evenodd" clip-rule="evenodd" d="M67.5894 55.5848H69.7382C70.165 55.5848 70.5111 55.9309 70.5111 56.3577C70.5111 56.7846 70.165 57.1306 69.7382 57.1306H32.6382C32.2113 57.1306 31.8652 56.7846 31.8652 56.3577C31.8652 55.9309 32.2113 55.5848 32.6382 55.5848H34.7869V42.6771C34.4669 42.5183 34.1725 42.3125 33.9135 42.0665C33.1404 41.3251 32.7023 40.301 32.7 39.2299C32.692 39.1631 32.692 39.0957 32.7 39.0289L35.2042 29.9703C35.3005 29.6262 35.6201 29.3929 35.9772 29.4061H42.23V27.2806H40.4137C39.9868 27.2806 39.6408 26.9345 39.6408 26.5077V21.2673C39.6408 20.8404 39.9868 20.4944 40.4137 20.4944H61.9626C62.3895 20.4944 62.7355 20.8404 62.7355 21.2673V26.5077C62.7355 26.9345 62.3895 27.2806 61.9626 27.2806H60.1463V29.4061H66.4301C66.7872 29.3929 67.1067 29.6262 67.203 29.9703L69.7382 39.1681C69.7462 39.2348 69.7462 39.3023 69.7382 39.369C69.7396 40.8112 68.9001 42.1218 67.5894 42.7235V55.5848ZM57.4256 27.4352V29.2515H58.6004V27.4352H57.4256ZM41.1943 22.0402H61.1897V25.7348H41.1866L41.1943 22.0402ZM44.9584 29.267V27.4506L43.7759 27.4352V29.267H44.9584ZM46.5043 27.2961H55.8798V29.4216H46.4965L46.5043 27.2961ZM55.9029 55.5848H60.9114V46.1629H55.9029V55.5848ZM66.0436 55.5848H62.4573V45.39C62.4573 44.9632 62.1112 44.6171 61.6844 44.6171H55.13C54.7032 44.6171 54.3571 44.9632 54.3571 45.39V55.5848H36.3327V43.0867H36.5491C37.4848 43.0531 38.3724 42.6633 39.0302 41.9969C39.1486 41.8826 39.2572 41.7585 39.3548 41.6259C40.061 42.5464 41.1549 43.0862 42.3151 43.0867C43.3048 43.0944 44.2554 42.7013 44.9507 41.9969C45.0651 41.8815 45.1734 41.7602 45.2753 41.6337C45.9814 42.5491 47.0718 43.0857 48.2279 43.0867C49.2174 43.0935 50.1677 42.7005 50.8635 41.9969C50.9798 41.8806 51.0883 41.7566 51.1882 41.6259C51.8943 42.5464 52.9883 43.0862 54.1484 43.0867C55.1353 43.0914 56.0824 42.6986 56.7763 41.9969C56.8926 41.8806 57.0011 41.7566 57.101 41.6259C57.8071 42.5464 58.9011 43.0862 60.0612 43.0867C61.0508 43.0935 62.0011 42.7005 62.6969 41.9969C62.8112 41.8815 62.9196 41.7602 63.0215 41.6337C63.7261 42.5509 64.8174 43.088 65.974 43.0867H66.0436V55.5848ZM63.7944 39.369C63.7944 40.574 64.769 41.5521 65.974 41.5564C66.5476 41.5619 67.0992 41.3362 67.5044 40.9303C67.8941 40.5443 68.1232 40.0252 68.1459 39.4772L65.8272 30.9751H62.2718L63.1915 35.9914C63.2668 36.4093 62.9906 36.8097 62.5732 36.8879H62.4341C62.0561 36.8941 61.7292 36.626 61.6612 36.2542L60.6873 30.9597H57.101L57.5724 36.0377C57.5917 36.2429 57.5283 36.4473 57.3962 36.6055C57.2642 36.7637 57.0744 36.8626 56.8691 36.8802H56.7995C56.3984 36.8818 56.0627 36.5764 56.0266 36.1769L55.5474 30.9519H51.9611V36.1073C51.9611 36.5342 51.615 36.8802 51.1882 36.8802C50.7613 36.8802 50.4152 36.5342 50.4152 36.1073V30.9288H46.8212L46.342 36.1537C46.3059 36.5532 45.9702 36.8587 45.569 36.857H45.4995C45.2942 36.8394 45.1044 36.7405 44.9723 36.5823C44.8403 36.4241 44.7768 36.2197 44.7961 36.0146L45.2676 30.9365H41.6813L40.7074 36.231C40.6394 36.6028 40.3124 36.8709 39.9345 36.8648H39.7954C39.3779 36.7865 39.1018 36.3862 39.177 35.9682L40.0968 30.9519H36.5414L34.2226 39.3304C34.2481 39.946 34.5113 40.5279 34.9569 40.9535C35.3697 41.3548 35.9272 41.5722 36.5027 41.5564C37.6701 41.5025 38.5873 40.5376 38.5819 39.369C38.5819 38.9421 38.9279 38.5961 39.3548 38.5961C39.7817 38.5961 40.1277 38.9421 40.1277 39.369C40.1277 40.5771 41.107 41.5564 42.3151 41.5564C43.5231 41.5564 44.5024 40.5771 44.5024 39.369C44.5024 38.9421 44.8485 38.5961 45.2753 38.5961C45.7022 38.5961 46.0483 38.9421 46.0483 39.369C46 40.1801 46.4053 40.9511 47.1007 41.3712C47.7962 41.7914 48.6673 41.7914 49.3627 41.3712C50.0582 40.9511 50.4635 40.1801 50.4152 39.369C50.4152 38.9421 50.7613 38.5961 51.1882 38.5961C51.615 38.5961 51.9611 38.9421 51.9611 39.369C51.9653 40.571 52.9387 41.5444 54.1407 41.5486C55.3457 41.5444 56.3203 40.5663 56.3203 39.3613C56.3203 38.9344 56.6664 38.5884 57.0932 38.5884C57.5201 38.5884 57.8661 38.9344 57.8661 39.3613C57.8661 40.5693 58.8455 41.5486 60.0535 41.5486C60.6335 41.5563 61.1917 41.3275 61.5993 40.9148C62.0132 40.5067 62.2469 39.9502 62.2486 39.369C62.2486 38.9421 62.5946 38.5961 63.0215 38.5961C63.4484 38.5961 63.7944 38.9421 63.7944 39.369Z" fill="#3D3D63"/>
<path d="M9.982 87.092V83.2H11.9V93H9.982V88.94H6.342V93H4.41V83.2H6.342V87.092H9.982ZM20.4405 90.242H15.1625C15.3959 91.1193 16.0539 91.558 17.1365 91.558C17.8272 91.558 18.3499 91.3247 18.7045 90.858L20.1605 91.698C19.4699 92.6967 18.4525 93.196 17.1085 93.196C15.9512 93.196 15.0225 92.846 14.3225 92.146C13.6225 91.446 13.2725 90.564 13.2725 89.5C13.2725 88.4547 13.6179 87.5773 14.3085 86.868C14.9899 86.1587 15.8765 85.804 16.9685 85.804C18.0045 85.804 18.8492 86.1587 19.5025 86.868C20.1745 87.5773 20.5105 88.4547 20.5105 89.5C20.5105 89.696 20.4872 89.9433 20.4405 90.242ZM15.1345 88.842H18.7045C18.6019 88.3847 18.3919 88.0347 18.0745 87.792C17.7665 87.5493 17.3979 87.428 16.9685 87.428C16.4832 87.428 16.0819 87.554 15.7645 87.806C15.4472 88.0487 15.2372 88.394 15.1345 88.842ZM27.7979 86V91.306H28.7219V94.876H26.9579V93H22.6179V94.876H20.8539V91.306H21.7079C22.1092 90.7087 22.3099 89.8827 22.3099 88.828V86H27.7979ZM23.6399 91.306H26.0339V87.624H24.0739V88.828C24.0739 89.836 23.9292 90.662 23.6399 91.306ZM34.9051 89.416C35.5584 89.7333 35.8851 90.2653 35.8851 91.012C35.8851 91.6093 35.6797 92.09 35.2691 92.454C34.8584 92.818 34.2844 93 33.5471 93H29.8651V86H33.2671C33.9951 86 34.5644 86.182 34.9751 86.546C35.3857 86.9007 35.5911 87.3767 35.5911 87.974C35.5911 88.59 35.3624 89.0707 34.9051 89.416ZM33.0991 87.484H31.5591V88.744H33.0991C33.6124 88.744 33.8691 88.534 33.8691 88.114C33.8691 87.694 33.6124 87.484 33.0991 87.484ZM31.5591 91.474H33.3371C33.8597 91.474 34.1211 91.25 34.1211 90.802C34.1211 90.606 34.0511 90.452 33.9111 90.34C33.7711 90.228 33.5797 90.172 33.3371 90.172H31.5591V91.474ZM38.7795 89.976L42.0695 86H43.4135V93H41.6495V89.024L38.3595 93H37.0155V86H38.7795V89.976ZM51.9842 89.458L54.5182 93H52.4882L50.3462 89.864V93H48.5822V89.864L46.4402 93H44.4242L46.9442 89.458L44.5642 86H46.5802L48.5822 89.038V86H50.3462V89.038L52.3482 86H54.3782L51.9842 89.458ZM57.2775 89.976L60.5675 86H61.9115V93H60.1475V89.024L56.8575 93H55.5135V86H57.2775V89.976ZM69.0682 86H70.8462V93H69.0962V88.912L67.3182 91.712H67.0942L65.3022 88.884V93H63.5662V86H65.3442L67.2062 88.94L69.0682 86ZM78.458 92.132C77.7486 92.8413 76.8713 93.196 75.826 93.196C74.7806 93.196 73.9033 92.8413 73.194 92.132C72.4846 91.4227 72.13 90.5453 72.13 89.5C72.13 88.464 72.4846 87.5913 73.194 86.882C73.9126 86.1633 74.79 85.804 75.826 85.804C76.862 85.804 77.7393 86.1633 78.458 86.882C79.1766 87.6007 79.536 88.4733 79.536 89.5C79.536 90.536 79.1766 91.4133 78.458 92.132ZM74.468 90.886C74.832 91.25 75.2846 91.432 75.826 91.432C76.3673 91.432 76.82 91.25 77.184 90.886C77.548 90.522 77.73 90.06 77.73 89.5C77.73 88.94 77.548 88.478 77.184 88.114C76.82 87.75 76.3673 87.568 75.826 87.568C75.2846 87.568 74.832 87.75 74.468 88.114C74.1133 88.4873 73.936 88.9493 73.936 89.5C73.936 90.0507 74.1133 90.5127 74.468 90.886ZM84.1385 93.196C83.0838 93.196 82.2018 92.8413 81.4925 92.132C80.7925 91.4227 80.4425 90.5453 80.4425 89.5C80.4425 88.4547 80.7925 87.5773 81.4925 86.868C82.2018 86.1587 83.0838 85.804 84.1385 85.804C84.8198 85.804 85.4405 85.9673 86.0005 86.294C86.5605 86.6207 86.9851 87.0593 87.2745 87.61L85.7205 88.52C85.5805 88.2307 85.3658 88.002 85.0765 87.834C84.7965 87.666 84.4791 87.582 84.1245 87.582C83.5831 87.582 83.1351 87.764 82.7805 88.128C82.4258 88.4827 82.2485 88.94 82.2485 89.5C82.2485 90.0413 82.4258 90.4987 82.7805 90.872C83.1351 91.2267 83.5831 91.404 84.1245 91.404C84.4885 91.404 84.8105 91.3247 85.0905 91.166C85.3798 90.998 85.5945 90.7693 85.7345 90.48L87.3025 91.376C86.9945 91.936 86.5558 92.3793 85.9865 92.706C85.4265 93.0327 84.8105 93.196 84.1385 93.196ZM87.5306 86H93.7326V87.736H91.5486V93H89.7426V87.736H87.5306V86ZM96.5031 88.24H97.8611C98.6544 88.24 99.2938 88.4593 99.7791 88.898C100.264 89.3273 100.507 89.9013 100.507 90.62C100.507 91.3387 100.264 91.9173 99.7791 92.356C99.2938 92.7853 98.6544 93 97.8611 93H94.6971V86H96.5031V88.24ZM96.5031 91.404H97.8751C98.1271 91.404 98.3324 91.334 98.4911 91.194C98.6591 91.0447 98.7431 90.8533 98.7431 90.62C98.7431 90.3867 98.6591 90.1953 98.4911 90.046C98.3324 89.8967 98.1271 89.822 97.8751 89.822H96.5031V91.404Z" fill="#4A4A4A"/>
</svg>
