<svg width="75" height="98" viewBox="0 0 75 98" fill="none" xmlns="http://www.w3.org/2000/svg">
<g opacity="0.33">
<rect width="75" height="75" rx="20" fill="#F7E233"/>
<path fill-rule="evenodd" clip-rule="evenodd" d="M61.2336 52.4834H59.5003C59.7281 52.0547 59.8482 51.5771 59.8503 51.0917V37.6667C60.2105 36.9415 60.3987 36.1431 60.4003 35.3334V29.9834C60.4003 28.911 59.5309 28.0417 58.4586 28.0417H52.6253V27.2084C52.6207 22.7598 49.0155 19.1546 44.5669 19.15H35.6836C31.235 19.1546 27.6299 22.7598 27.6253 27.2084V28.0417H21.7919C20.7196 28.0417 19.8503 28.911 19.8503 29.9834V35.3334C19.8505 36.1459 20.0387 36.9473 20.4003 37.675V51.0917C20.4023 51.5771 20.5224 52.0547 20.7503 52.4834H19.0169C18.5567 52.4834 18.1836 52.8565 18.1836 53.3167C18.1836 53.7769 18.5567 54.15 19.0169 54.15H35.0169L34.9169 55.5667C34.901 55.8136 34.9957 56.0548 35.1753 56.225L39.5419 60.4584C39.866 60.776 40.3846 60.776 40.7086 60.4584L45.0753 56.225C45.2548 56.0548 45.3495 55.8136 45.3336 55.5667L45.2336 54.15H61.2336C61.6938 54.15 62.0669 53.7769 62.0669 53.3167C62.0669 52.8565 61.6938 52.4834 61.2336 52.4834ZM29.2919 27.2084C29.2965 23.6802 32.1555 20.8213 35.6836 20.8167H44.5669C48.095 20.8213 50.954 23.6802 50.9586 27.2084V28.0417H49.2919V27.2084C49.2919 24.5988 47.1765 22.4834 44.5669 22.4834H35.6836C33.074 22.4834 30.9586 24.5988 30.9586 27.2084V28.0417H29.2919V27.2084ZM47.6253 28.0417V27.2084C47.6253 26.3972 47.303 25.6193 46.7295 25.0458C46.1559 24.4722 45.378 24.15 44.5669 24.15H35.6836C33.9945 24.15 32.6253 25.5193 32.6253 27.2084V28.0417H34.2253C34.3203 27.7867 34.4584 27.5499 34.6336 27.3417C35.107 26.7832 35.8015 26.4604 36.5336 26.4584H43.7169C44.449 26.4604 45.1435 26.7832 45.6169 27.3417C45.7921 27.5499 45.9303 27.7867 46.0253 28.0417H47.6253ZM23.4586 52.4834C23.0895 52.4834 22.7355 52.3367 22.4745 52.0757C22.2135 51.8148 22.0669 51.4608 22.0669 51.0917V39.6167C22.9586 40.256 24.0281 40.5999 25.1253 40.6H25.9586V41.65C25.8996 42.7792 26.4685 43.8489 27.4377 44.4312C28.407 45.0135 29.6185 45.0135 30.5878 44.4312C31.5571 43.8489 32.1259 42.7792 32.0669 41.65V40.6H35.9586L35.1253 52.4834H23.4586ZM27.6253 39.15V41.65C27.5848 42.1714 27.8401 42.6714 28.2861 42.9445C28.7321 43.2176 29.2935 43.2176 29.7395 42.9445C30.1854 42.6714 30.4407 42.1714 30.4003 41.65V39.15H27.6253ZM36.0419 38.9334H32.0669V38.875C32.0691 38.5067 31.9244 38.1527 31.6647 37.8915C31.4051 37.6302 31.0519 37.4834 30.6836 37.4834H27.3503C26.5817 37.4834 25.9586 38.1064 25.9586 38.875V38.9334H25.1253C23.1357 38.9334 21.5215 37.3229 21.5169 35.3334V29.9834C21.5169 29.8315 21.64 29.7084 21.7919 29.7084H34.1253L34.7086 33.1667C34.8401 33.9928 35.4901 34.6395 36.3169 34.7667L36.0419 38.9334ZM36.7919 52.5584L36.6086 55.3334L37.2753 55.925L43.4586 52.35L43.2086 48.8584L36.7919 52.5584ZM42.4919 38.1667L42.7253 41.6584L37.3169 44.7834L37.5669 41L42.4919 38.1667ZM37.9919 34.8334L37.7086 39L42.3669 36.35L42.2586 34.8334H37.9919ZM42.8503 43.5084L43.0836 47.0084L36.9253 50.5584L37.1836 46.7834L42.8503 43.5084ZM38.5003 57.1L40.1253 58.6667L43.6419 55.2584L43.5669 54.175L38.5003 57.1ZM43.6253 33.0917H36.6253C36.4883 33.0933 36.371 32.9938 36.3503 32.8584L35.7169 29.0584C35.6761 28.8174 35.7431 28.5706 35.9003 28.3834C36.0586 28.1982 36.29 28.0917 36.5336 28.0917H43.7169C43.9605 28.0917 44.1919 28.1982 44.3503 28.3834C44.5074 28.5706 44.5744 28.8174 44.5336 29.0584L43.9003 32.8584C43.8958 33.007 43.7739 33.1251 43.6253 33.125V33.0917ZM45.5419 33.1667C45.4071 33.9896 44.7579 34.6322 43.9336 34.7584L44.2086 38.9334H48.1836V38.875C48.1814 38.5067 48.3261 38.1527 48.5858 37.8915C48.8455 37.6302 49.1986 37.4834 49.5669 37.4834H52.9003C53.6689 37.4834 54.2919 38.1064 54.2919 38.875V38.9334H55.1253C57.1148 38.9334 58.729 37.3229 58.7336 35.3334V29.9834C58.7336 29.8315 58.6105 29.7084 58.4586 29.7084H46.1253L45.5419 33.1667ZM52.6253 39.15V41.65C52.6657 42.1714 52.4104 42.6714 51.9645 42.9445C51.5185 43.2176 50.9571 43.2176 50.5111 42.9445C50.0651 42.6714 49.8098 42.1714 49.8503 41.65V39.15H52.6253ZM44.2919 40.6L45.1253 52.4834H56.7919C57.5475 52.4653 58.1505 51.8475 58.1503 51.0917V39.6167C57.2586 40.256 56.1891 40.5999 55.0919 40.6H54.2586V41.65C54.3176 42.7792 53.7487 43.8489 52.7794 44.4312C51.8102 45.0135 50.5987 45.0135 49.6294 44.4312C48.6601 43.8489 48.0913 42.7792 48.1503 41.65V40.6H44.2919Z" fill="#3D3D63"/>
<path d="M15.41 83.2H19.064C19.9973 83.2 20.7907 83.5173 21.444 84.152C22.088 84.7867 22.41 85.566 22.41 86.49C22.41 87.414 22.088 88.1933 21.444 88.828C20.7907 89.4627 19.9973 89.78 19.064 89.78H17.342V93H15.41V83.2ZM17.342 87.974H19.064C19.4747 87.974 19.8153 87.834 20.086 87.554C20.3567 87.2647 20.492 86.91 20.492 86.49C20.492 86.0607 20.3567 85.706 20.086 85.426C19.8153 85.146 19.4747 85.006 19.064 85.006H17.342V87.974ZM28.439 86.826V86H30.245V93H28.439V92.174C27.8976 92.8553 27.137 93.196 26.157 93.196C25.2236 93.196 24.421 92.8413 23.749 92.132C23.0863 91.4133 22.755 90.536 22.755 89.5C22.755 88.4733 23.0863 87.6007 23.749 86.882C24.421 86.1633 25.2236 85.804 26.157 85.804C27.137 85.804 27.8976 86.1447 28.439 86.826ZM25.107 90.928C25.471 91.292 25.933 91.474 26.493 91.474C27.053 91.474 27.515 91.292 27.879 90.928C28.2523 90.5547 28.439 90.0787 28.439 89.5C28.439 88.9213 28.2523 88.45 27.879 88.086C27.515 87.7127 27.053 87.526 26.493 87.526C25.933 87.526 25.471 87.7127 25.107 88.086C24.743 88.45 24.561 88.9213 24.561 89.5C24.561 90.0787 24.743 90.5547 25.107 90.928ZM35.2006 93.196C34.0993 93.196 33.208 92.8413 32.5266 92.132C31.8546 91.4227 31.5186 90.522 31.5186 89.43C31.5186 88.2447 31.696 87.3253 32.0506 86.672C32.396 86.0187 33.11 85.426 34.1926 84.894C34.2206 84.8753 34.272 84.8473 34.3466 84.81C34.4306 84.7727 34.5146 84.7353 34.5986 84.698C34.692 84.6607 34.7806 84.6233 34.8646 84.586L35.4526 84.292C35.5926 84.2267 35.742 84.1427 35.9006 84.04C36.134 83.9 36.3066 83.7553 36.4186 83.606C36.5306 83.4567 36.652 83.2327 36.7826 82.934L38.2666 83.788C38.1453 84.3573 37.87 84.8007 37.4406 85.118C37.002 85.4353 36.3673 85.7527 35.5366 86.07C34.958 86.294 34.5286 86.5227 34.2486 86.756C33.9686 86.9893 33.768 87.274 33.6466 87.61C34.16 87.078 34.86 86.812 35.7466 86.812C36.5306 86.812 37.2213 87.0967 37.8186 87.666C38.4253 88.226 38.7286 88.9727 38.7286 89.906C38.7286 90.8673 38.402 91.656 37.7486 92.272C37.1046 92.888 36.2553 93.196 35.2006 93.196ZM35.1726 88.254C34.706 88.254 34.2953 88.3987 33.9406 88.688C33.586 88.9867 33.4086 89.374 33.4086 89.85C33.4086 90.3447 33.5766 90.7507 33.9126 91.068C34.258 91.3853 34.6826 91.544 35.1866 91.544C35.7 91.544 36.1153 91.39 36.4326 91.082C36.7593 90.774 36.9226 90.382 36.9226 89.906C36.9226 89.43 36.7593 89.038 36.4326 88.73C36.106 88.4127 35.686 88.254 35.1726 88.254ZM45.79 92.132C45.0807 92.8413 44.2033 93.196 43.158 93.196C42.1127 93.196 41.2353 92.8413 40.526 92.132C39.8167 91.4227 39.462 90.5453 39.462 89.5C39.462 88.464 39.8167 87.5913 40.526 86.882C41.2447 86.1633 42.122 85.804 43.158 85.804C44.194 85.804 45.0713 86.1633 45.79 86.882C46.5087 87.6007 46.868 88.4733 46.868 89.5C46.868 90.536 46.5087 91.4133 45.79 92.132ZM41.8 90.886C42.164 91.25 42.6167 91.432 43.158 91.432C43.6993 91.432 44.152 91.25 44.516 90.886C44.88 90.522 45.062 90.06 45.062 89.5C45.062 88.94 44.88 88.478 44.516 88.114C44.152 87.75 43.6993 87.568 43.158 87.568C42.6167 87.568 42.164 87.75 41.8 88.114C41.4453 88.4873 41.268 88.9493 41.268 89.5C41.268 90.0507 41.4453 90.5127 41.8 90.886ZM47.1791 86H53.3811V87.736H51.1971V93H49.3911V87.736H47.1791V86ZM59.3921 86.826V86H61.1981V93H59.3921V92.174C58.8508 92.8553 58.0901 93.196 57.1101 93.196C56.1768 93.196 55.3741 92.8413 54.7021 92.132C54.0394 91.4133 53.7081 90.536 53.7081 89.5C53.7081 88.4733 54.0394 87.6007 54.7021 86.882C55.3741 86.1633 56.1768 85.804 57.1101 85.804C58.0901 85.804 58.8508 86.1447 59.3921 86.826ZM56.0601 90.928C56.4241 91.292 56.8861 91.474 57.4461 91.474C58.0061 91.474 58.4681 91.292 58.8321 90.928C59.2054 90.5547 59.3921 90.0787 59.3921 89.5C59.3921 88.9213 59.2054 88.45 58.8321 88.086C58.4681 87.7127 58.0061 87.526 57.4461 87.526C56.8861 87.526 56.4241 87.7127 56.0601 88.086C55.6961 88.45 55.5141 88.9213 55.5141 89.5C55.5141 90.0787 55.6961 90.5547 56.0601 90.928Z" fill="#4A4A4A"/>
</g>
</svg>
