<svg width="75" height="98" viewBox="0 0 75 98" fill="none" xmlns="http://www.w3.org/2000/svg">
<g opacity="0.33">
<rect width="75" height="75" rx="20" fill="#B4E2E1"/>
<path fill-rule="evenodd" clip-rule="evenodd" d="M60.0991 53.5667L51.9491 42C55.6074 35.2109 53.9348 26.781 47.9616 21.903C41.9883 17.025 33.3941 17.0706 27.4731 22.0118C21.552 26.9529 19.9689 35.4002 23.6991 42.15L15.6491 53.5667C15.3509 53.9824 15.3116 54.5304 15.5474 54.9845C15.7832 55.4385 16.2542 55.7215 16.7658 55.7167H58.9825C59.4941 55.7215 59.965 55.4385 60.2008 54.9845C60.4367 54.5304 60.3973 53.9824 60.0991 53.5667ZM26.7658 40.5917L29.7658 44.85L28.4325 46.7417L27.3491 45.6583C27.196 45.5064 26.9899 45.4197 26.7741 45.4167C26.5584 45.4197 26.3523 45.5064 26.1991 45.6583L24.0075 47.8333L22.6241 46.475L26.7658 40.5917ZM41.5658 29.0083L42.2491 28.0917L38.5991 28.0833V30.9H42.2491L41.5658 29.9833C41.3558 29.6922 41.3558 29.2994 41.5658 29.0083ZM37.7741 36.3083L42.5158 43.0417L40.8908 44.6667L38.4408 42.2167C38.1189 41.9098 37.6127 41.9098 37.2908 42.2167L34.9825 44.5L33.2241 42.7417L37.7741 36.3083ZM34.3991 46.2583L32.2658 44.125L25.2491 54.0917H50.3241L43.4741 44.375L41.4741 46.3833C41.1522 46.6902 40.646 46.6902 40.3241 46.3833L37.8741 43.9333L35.5491 46.2583C35.2272 46.5652 34.721 46.5652 34.3991 46.2583ZM45.8741 44.9583L48.9658 40.575L53.1325 46.4583L51.7408 47.8333L49.5408 45.6583C49.3876 45.5064 49.1815 45.4197 48.9658 45.4167C48.7501 45.4197 48.544 45.5064 48.3908 45.6583L47.2075 46.85L45.8741 44.9583ZM32.4413 20.927C26.931 23.1161 23.3144 28.4458 23.3158 34.375C23.3139 36.5408 23.798 38.6795 24.7325 40.6333L25.6408 39.35C25.9093 39.0061 26.3212 38.8051 26.7575 38.8051C27.1937 38.8051 27.6057 39.0061 27.8741 39.35L30.7408 43.4083L36.6408 35.075C36.7246 34.9618 36.8293 34.8657 36.9491 34.7917V27.2917C36.9491 26.8314 37.3222 26.4583 37.7825 26.4583H43.8908C44.1918 26.4727 44.4616 26.6485 44.5964 26.918C44.7312 27.1876 44.7099 27.5089 44.5408 27.7583L43.2325 29.5L44.5408 31.2167C44.7106 31.4673 44.731 31.7903 44.5942 32.0604C44.4575 32.3305 44.185 32.5052 43.8825 32.5167H38.5991V34.775C38.7146 34.8515 38.8161 34.9474 38.8991 35.0583L44.8575 43.5583L47.8241 39.35C48.0926 39.0061 48.5045 38.8051 48.9408 38.8051C49.3771 38.8051 49.789 39.0061 50.0575 39.35L50.8908 40.4917C53.3991 35.1192 52.3753 28.7601 48.3075 24.4464C44.2397 20.1327 37.9515 18.7379 32.4413 20.927ZM21.6825 47.8333L23.4325 49.5833C23.7544 49.8902 24.2606 49.8902 24.5825 49.5833L26.7825 47.3917L27.4908 48.1L23.6325 53.575C23.5245 53.733 23.4507 53.9118 23.4158 54.1H17.2575L21.6825 47.8333ZM51.9408 53.575C52.0463 53.7335 52.1172 53.9123 52.1491 54.1L58.5325 54.0917L54.1075 47.825L52.3575 49.575C52.0356 49.8819 51.5294 49.8819 51.2075 49.575L48.9908 47.375L48.1575 48.2083L51.9408 53.575Z" fill="#3D3D63"/>
<path d="M12.942 83.2V91.152H13.992V94.876H12.06V93H6.642V94.876H4.71V91.152H5.662C6.20333 90.4053 6.474 89.2993 6.474 87.834V83.2H12.942ZM7.734 91.152H11.01V85.006H8.406V87.862C8.406 89.29 8.182 90.3867 7.734 91.152ZM20.8877 92.132C20.1783 92.8413 19.301 93.196 18.2557 93.196C17.2103 93.196 16.333 92.8413 15.6237 92.132C14.9143 91.4227 14.5597 90.5453 14.5597 89.5C14.5597 88.464 14.9143 87.5913 15.6237 86.882C16.3423 86.1633 17.2197 85.804 18.2557 85.804C19.2917 85.804 20.169 86.1633 20.8877 86.882C21.6063 87.6007 21.9657 88.4733 21.9657 89.5C21.9657 90.536 21.6063 91.4133 20.8877 92.132ZM16.8977 90.886C17.2617 91.25 17.7143 91.432 18.2557 91.432C18.797 91.432 19.2497 91.25 19.6137 90.886C19.9777 90.522 20.1597 90.06 20.1597 89.5C20.1597 88.94 19.9777 88.478 19.6137 88.114C19.2497 87.75 18.797 87.568 18.2557 87.568C17.7143 87.568 17.2617 87.75 16.8977 88.114C16.543 88.4873 16.3657 88.9493 16.3657 89.5C16.3657 90.0507 16.543 90.5127 16.8977 90.886ZM28.7382 86H30.5162V93H28.7662V88.912L26.9882 91.712H26.7642L24.9722 88.884V93H23.2362V86H25.0142L26.8762 88.94L28.7382 86ZM37.4279 89.976L40.7179 86H42.0619V93H40.2979V89.024L37.0079 93H35.6639V86H37.4279V89.976ZM51.9486 93.196C50.4833 93.196 49.2653 92.706 48.2946 91.726C47.3333 90.7553 46.8526 89.5467 46.8526 88.1C46.8526 86.644 47.3333 85.4353 48.2946 84.474C49.2653 83.494 50.4833 83.004 51.9486 83.004C52.8353 83.004 53.652 83.214 54.3986 83.634C55.1546 84.0447 55.7426 84.6047 56.1626 85.314L54.4966 86.28C54.254 85.8413 53.9086 85.5007 53.4606 85.258C53.0126 85.006 52.5086 84.88 51.9486 84.88C50.9966 84.88 50.2266 85.1787 49.6386 85.776C49.06 86.3827 48.7706 87.1573 48.7706 88.1C48.7706 89.0333 49.06 89.8033 49.6386 90.41C50.2266 91.0073 50.9966 91.306 51.9486 91.306C52.5086 91.306 53.0126 91.1847 53.4606 90.942C53.918 90.69 54.2633 90.3493 54.4966 89.92L56.1626 90.886C55.7426 91.5953 55.1546 92.16 54.3986 92.58C53.652 92.9907 52.8353 93.196 51.9486 93.196ZM62.6265 86.826V86H64.4325V93H62.6265V92.174C62.0851 92.8553 61.3245 93.196 60.3445 93.196C59.4111 93.196 58.6085 92.8413 57.9365 92.132C57.2738 91.4133 56.9425 90.536 56.9425 89.5C56.9425 88.4733 57.2738 87.6007 57.9365 86.882C58.6085 86.1633 59.4111 85.804 60.3445 85.804C61.3245 85.804 62.0851 86.1447 62.6265 86.826ZM59.2945 90.928C59.6585 91.292 60.1205 91.474 60.6805 91.474C61.2405 91.474 61.7025 91.292 62.0665 90.928C62.4398 90.5547 62.6265 90.0787 62.6265 89.5C62.6265 88.9213 62.4398 88.45 62.0665 88.086C61.7025 87.7127 61.2405 87.526 60.6805 87.526C60.1205 87.526 59.6585 87.7127 59.2945 88.086C58.9305 88.45 58.7485 88.9213 58.7485 89.5C58.7485 90.0787 58.9305 90.5547 59.2945 90.928ZM72.3701 86V91.306H73.2941V94.876H71.5301V93H67.1901V94.876H65.4261V91.306H66.2801C66.6815 90.7087 66.8821 89.8827 66.8821 88.828V86H72.3701ZM68.2121 91.306H70.6061V87.624H68.6461V88.828C68.6461 89.836 68.5015 90.662 68.2121 91.306Z" fill="#4A4A4A"/>
</g>
</svg>
