<svg width="102" height="98" viewBox="0 0 102 98" fill="none" xmlns="http://www.w3.org/2000/svg">
<g opacity="0.33">
<rect x="14" width="75" height="75" rx="20" fill="#F6DAC2"/>
<path d="M39.4088 38.8666C39.6222 38.8288 39.8118 38.7077 39.9358 38.5301C40.0599 38.3524 40.1083 38.1327 40.0703 37.9193L39.8743 36.9148C39.8232 36.623 39.6204 36.3807 39.3422 36.279C39.064 36.1773 38.7527 36.2318 38.5255 36.4219C38.2984 36.612 38.1899 36.9089 38.2409 37.2006L38.4206 38.2133C38.4596 38.4339 38.5875 38.6287 38.7744 38.7522C38.9612 38.8757 39.1906 38.9171 39.4088 38.8666Z" fill="#3D3D63"/>
<path d="M36.7145 41.4473L37.7353 41.2677C38.0567 41.2544 38.3403 41.0539 38.4598 40.7553C38.5794 40.4568 38.5126 40.1159 38.2893 39.8845C38.0659 39.6531 37.7276 39.5744 37.425 39.6833L36.4123 39.863C35.9613 39.9397 35.6578 40.3675 35.7345 40.8185C35.8112 41.2695 36.239 41.573 36.69 41.4963L36.7145 41.4473Z" fill="#3D3D63"/>
<path d="M39.1807 42.2803L39.3604 43.293C39.4392 43.7336 39.8581 44.0287 40.2995 43.9545C40.7435 43.8796 41.043 43.4595 40.9692 43.0153L40.7895 41.9945C40.7183 41.5583 40.313 41.2579 39.8749 41.3167C39.6521 41.3463 39.4514 41.4665 39.32 41.6489C39.1887 41.8312 39.1383 42.0596 39.1807 42.2803Z" fill="#3D3D63"/>
<path d="M41.8026 40.549L42.8152 40.3693C43.107 40.3183 43.3494 40.1154 43.451 39.8372C43.5527 39.559 43.4982 39.2477 43.3081 39.0206C43.118 38.7934 42.8212 38.6849 42.5294 38.736L41.5086 38.9402C41.0575 39.0191 40.7559 39.4487 40.8348 39.8998C40.9137 40.3508 41.3434 40.6524 41.7944 40.5735L41.8026 40.549Z" fill="#3D3D63"/>
<path d="M56.2738 36.3432L55.2611 36.5228C55.0449 36.555 54.8506 36.6724 54.7216 36.8489C54.5927 37.0254 54.5399 37.2463 54.5751 37.462C54.611 37.6769 54.7313 37.8685 54.9092 37.9943C55.0871 38.12 55.3079 38.1695 55.5224 38.1317L56.5433 37.952C56.7566 37.9142 56.9463 37.7931 57.0703 37.6154C57.1944 37.4377 57.2428 37.218 57.2048 37.0047C57.1258 36.5678 56.7123 36.2739 56.2738 36.3432Z" fill="#3D3D63"/>
<path d="M58.6592 38.05C58.2186 38.1289 57.9236 38.5477 57.9977 38.9892L58.1774 40.01C58.2563 40.4506 58.6751 40.7457 59.1166 40.6715C59.3416 40.6385 59.5427 40.513 59.6713 40.3255C59.8 40.1379 59.8446 39.9052 59.7944 39.6833L59.6147 38.6707C59.517 38.2391 59.0933 37.9639 58.6592 38.05Z" fill="#3D3D63"/>
<path d="M67.1511 31.68C66.7474 31.4795 66.2577 31.644 66.0568 32.0475C65.5534 33.0369 64.4476 33.5642 63.3619 33.3325C62.2762 33.1008 61.482 32.1681 61.4263 31.0593C61.4263 30.6083 61.0607 30.2427 60.6096 30.2427C60.1586 30.2427 59.793 30.6083 59.793 31.0593C59.8849 32.911 61.2128 34.4684 63.0267 34.8518C64.8405 35.2353 66.6851 34.3487 67.5186 32.6927C67.6677 32.3107 67.5105 31.8775 67.1511 31.68Z" fill="#3D3D63"/>
<path d="M61.1092 28.6992C61.3886 28.7625 61.6818 28.7119 61.9239 28.5587C62.166 28.4055 62.3371 28.1622 62.3995 27.8825C62.527 27.2994 62.1636 26.7217 61.5828 26.584C60.9931 26.4681 60.4192 26.8459 60.2925 27.4333C60.1848 28.0053 60.5436 28.5615 61.1092 28.6992Z" fill="#3D3D63"/>
<path d="M67.7486 27.8825C67.3194 27.7834 66.8728 27.9533 66.6181 28.3126C66.3633 28.6719 66.3508 29.1495 66.5863 29.5217C66.8219 29.8939 67.2589 30.087 67.6927 30.0105C68.1265 29.934 68.4711 29.6032 68.5652 29.1729C68.6877 28.5925 68.3255 28.0202 67.7486 27.8825Z" fill="#3D3D63"/>
<path fill-rule="evenodd" clip-rule="evenodd" d="M72.2965 31.9087C73.2631 27.5114 70.6064 23.13 66.2605 21.954C61.9145 20.7781 57.411 23.2221 56.0285 27.5068C55.2504 27.7458 54.5264 28.1342 53.897 28.6502C53.3839 29.0787 53.0682 29.6982 53.0231 30.3652L52.868 32.562L52.721 32.7743L50.3771 33.1908C51.6021 31.4595 52.9905 28.74 51.9451 26.192C50.4016 22.4598 44.7748 22.5333 43.0925 22.664C41.7544 22.734 40.435 23.0095 39.1806 23.4807C37.7106 24.0605 36.6653 24.1422 35.7915 23.7338C35.3109 23.49 34.9989 23.0063 34.9748 22.468C34.9514 22.1762 34.7742 21.9191 34.5099 21.7934C34.2455 21.6677 33.9342 21.6927 33.6932 21.8588C33.4522 22.0248 33.3181 22.3069 33.3415 22.5987C33.4007 23.7415 34.0808 24.7601 35.1136 25.2528C36.6376 25.8248 38.3297 25.7451 39.7931 25.0323C40.8887 24.6112 42.0431 24.3632 43.215 24.2973C46.1305 24.0932 49.5441 24.6485 50.4425 26.8127C51.545 29.4995 48.6621 32.8315 47.919 33.6237L43.6396 34.375L43.4273 34.2198L42.529 32.2108C42.2626 31.599 41.7537 31.1256 41.1243 30.9042C39.0596 30.2013 36.7788 30.6051 35.081 31.974C34.5699 32.4006 34.2544 33.0168 34.2071 33.6808L34.052 35.8777C33.1254 37.0933 32.6233 38.5795 32.6228 40.108V40.3122V40.892L31.8061 53.5095C31.614 56.2799 33.5459 58.7477 36.2815 59.2262C39.0054 59.7037 41.6532 58.0581 42.431 55.4042L44.2521 49.1975C44.3228 49.2015 44.3937 49.2015 44.4645 49.1975C46.384 49.1612 47.9473 47.6442 48.0415 45.7267L52.378 44.9672C52.9557 46.3176 54.282 47.1943 55.7508 47.1967C56.2485 47.1983 56.7409 47.0954 57.1963 46.8945L61.0265 52.0967C62.6712 54.3112 65.7149 54.941 68.1033 53.5609C70.4918 52.1808 71.4663 49.2294 70.3691 46.6985L66.6615 38.1643C69.5195 37.231 71.6657 34.8484 72.2965 31.9087ZM54.6565 30.4795C54.6702 30.2622 54.7701 30.0593 54.9341 29.916C55.1513 29.7367 55.3867 29.5807 55.6365 29.4505C55.6202 29.7661 55.6202 30.0823 55.6365 30.3978C55.2927 30.5497 54.9621 30.73 54.6483 30.9368L54.6565 30.4795ZM52.9986 41.1452C51.4948 39.3027 51.0415 36.8175 51.7981 34.5628L45.1096 35.7715C46.5982 37.6324 47.0269 40.1273 46.2448 42.3783C46.9344 42.7753 47.4762 43.3859 47.7883 44.1178L52.1248 43.3583C52.1582 42.5432 52.4661 41.7633 52.9986 41.1452ZM35.8323 33.7462C35.846 33.5288 35.946 33.326 36.11 33.1827C37.359 32.1592 39.0468 31.8506 40.5771 32.366C40.7813 32.4433 40.946 32.5992 41.0345 32.7988L41.2141 33.2072C39.3412 32.773 37.372 33.1496 35.7915 34.2443L35.8323 33.7462ZM44.9953 40.059C44.9953 37.0899 42.5907 34.6817 39.6216 34.6772V34.7017C36.7331 34.8143 34.4494 37.1887 34.4494 40.0794C34.4494 42.9702 36.7331 45.3446 39.6216 45.4572C40.0202 45.4532 40.4171 45.4067 40.8058 45.3183C40.9097 43.3854 42.5043 41.8697 44.44 41.8638C44.5188 41.8598 44.5979 41.8598 44.6768 41.8638C44.8868 41.2852 44.9946 40.6745 44.9953 40.059ZM40.8385 54.8733C40.3053 56.739 38.449 57.9004 36.5381 57.5641C34.6272 57.2277 33.279 55.5022 33.415 53.5667L34.0111 44.2322C35.3264 46.0127 37.408 47.0641 39.6216 47.066C40.1105 47.0614 40.5976 47.0067 41.0753 46.9027C41.3929 47.6502 41.9503 48.2708 42.6596 48.6667L40.8385 54.8733ZM42.5688 46.2731C42.8823 47.0299 43.6208 47.5233 44.44 47.5233V47.5642C44.9843 47.5643 45.5057 47.3453 45.8867 46.9566C46.2677 46.5679 46.4763 46.0422 46.4653 45.498C46.4653 44.6788 45.9718 43.9403 45.215 43.6268C44.4582 43.3134 43.5871 43.4866 43.0078 44.0659C42.4286 44.6451 42.2553 45.5163 42.5688 46.2731ZM55.7835 45.5633C54.6681 45.5633 53.7626 44.6615 53.7581 43.5462C53.7561 43.1053 53.9029 42.6766 54.1746 42.3293C55.2153 43.1389 56.464 43.6372 57.7761 43.7667C57.6678 44.7863 56.8089 45.5607 55.7835 45.5633ZM55.8325 32.0965C54.1322 33.0448 53.0767 34.8374 53.0721 36.7842C53.0776 39.3975 54.9623 41.6281 57.5382 42.0695C60.114 42.5109 62.6339 41.0351 63.5091 38.5727C63.0975 38.5464 62.6882 38.4918 62.2841 38.4093C59.095 37.7274 56.5836 35.2701 55.8325 32.0965ZM68.9073 47.3518C69.673 49.1215 68.991 51.1841 67.3212 52.1484C65.6514 53.1127 63.524 52.6725 62.374 51.1248L58.5356 45.9145C59.0576 45.3149 59.3676 44.5601 59.4176 43.7667C62.1143 43.3848 64.3445 41.4732 65.1343 38.8667L68.9073 47.3518ZM57.3387 31.3993C57.843 34.1088 59.9306 36.2473 62.6271 36.8168C66.3023 37.5931 69.9121 35.2474 70.6958 31.5738C71.2708 28.8784 70.1647 26.1022 67.8937 24.5406C65.6228 22.9791 62.6346 22.94 60.3236 24.4417C58.0126 25.9434 56.8343 28.6898 57.3387 31.3993Z" fill="#3D3D63"/>
<path d="M8.862 87.96L11.872 93H9.674L7.77 89.808L5.866 93H3.682L6.678 87.974L3.836 83.2H6.02L7.77 86.14L9.52 83.2H11.704L8.862 87.96ZM18.3427 92.132C17.6334 92.8413 16.7561 93.196 15.7107 93.196C14.6654 93.196 13.7881 92.8413 13.0787 92.132C12.3694 91.4227 12.0147 90.5453 12.0147 89.5C12.0147 88.464 12.3694 87.5913 13.0787 86.882C13.7974 86.1633 14.6747 85.804 15.7107 85.804C16.7467 85.804 17.6241 86.1633 18.3427 86.882C19.0614 87.6007 19.4207 88.4733 19.4207 89.5C19.4207 90.536 19.0614 91.4133 18.3427 92.132ZM14.3527 90.886C14.7167 91.25 15.1694 91.432 15.7107 91.432C16.2521 91.432 16.7047 91.25 17.0687 90.886C17.4327 90.522 17.6147 90.06 17.6147 89.5C17.6147 88.94 17.4327 88.478 17.0687 88.114C16.7047 87.75 16.2521 87.568 15.7107 87.568C15.1694 87.568 14.7167 87.75 14.3527 88.114C13.9981 88.4873 13.8207 88.9493 13.8207 89.5C13.8207 90.0507 13.9981 90.5127 14.3527 90.886ZM24.0092 93.196C22.9079 93.196 22.0166 92.8413 21.3352 92.132C20.6632 91.4227 20.3272 90.522 20.3272 89.43C20.3272 88.2447 20.5046 87.3253 20.8592 86.672C21.2046 86.0187 21.9186 85.426 23.0012 84.894C23.0292 84.8753 23.0806 84.8473 23.1552 84.81C23.2392 84.7727 23.3232 84.7353 23.4072 84.698C23.5006 84.6607 23.5892 84.6233 23.6732 84.586L24.2612 84.292C24.4012 84.2267 24.5506 84.1427 24.7092 84.04C24.9426 83.9 25.1152 83.7553 25.2272 83.606C25.3392 83.4567 25.4606 83.2327 25.5912 82.934L27.0752 83.788C26.9539 84.3573 26.6786 84.8007 26.2492 85.118C25.8106 85.4353 25.1759 85.7527 24.3452 86.07C23.7666 86.294 23.3372 86.5227 23.0572 86.756C22.7772 86.9893 22.5766 87.274 22.4552 87.61C22.9686 87.078 23.6686 86.812 24.5552 86.812C25.3392 86.812 26.0299 87.0967 26.6272 87.666C27.2339 88.226 27.5372 88.9727 27.5372 89.906C27.5372 90.8673 27.2106 91.656 26.5572 92.272C25.9132 92.888 25.0639 93.196 24.0092 93.196ZM23.9812 88.254C23.5146 88.254 23.1039 88.3987 22.7492 88.688C22.3946 88.9867 22.2172 89.374 22.2172 89.85C22.2172 90.3447 22.3852 90.7507 22.7212 91.068C23.0666 91.3853 23.4912 91.544 23.9952 91.544C24.5086 91.544 24.9239 91.39 25.2412 91.082C25.5679 90.774 25.7312 90.382 25.7312 89.906C25.7312 89.43 25.5679 89.038 25.2412 88.73C24.9146 88.4127 24.4946 88.254 23.9812 88.254ZM31.9526 93.196C30.8513 93.196 29.9599 92.8413 29.2786 92.132C28.6066 91.4227 28.2706 90.522 28.2706 89.43C28.2706 88.2447 28.4479 87.3253 28.8026 86.672C29.1479 86.0187 29.8619 85.426 30.9446 84.894C30.9726 84.8753 31.0239 84.8473 31.0986 84.81C31.1826 84.7727 31.2666 84.7353 31.3506 84.698C31.4439 84.6607 31.5326 84.6233 31.6166 84.586L32.2046 84.292C32.3446 84.2267 32.4939 84.1427 32.6526 84.04C32.8859 83.9 33.0586 83.7553 33.1706 83.606C33.2826 83.4567 33.4039 83.2327 33.5346 82.934L35.0186 83.788C34.8973 84.3573 34.6219 84.8007 34.1926 85.118C33.7539 85.4353 33.1193 85.7527 32.2886 86.07C31.7099 86.294 31.2806 86.5227 31.0006 86.756C30.7206 86.9893 30.5199 87.274 30.3986 87.61C30.9119 87.078 31.6119 86.812 32.4986 86.812C33.2826 86.812 33.9733 87.0967 34.5706 87.666C35.1773 88.226 35.4806 88.9727 35.4806 89.906C35.4806 90.8673 35.1539 91.656 34.5006 92.272C33.8566 92.888 33.0073 93.196 31.9526 93.196ZM31.9246 88.254C31.4579 88.254 31.0473 88.3987 30.6926 88.688C30.3379 88.9867 30.1606 89.374 30.1606 89.85C30.1606 90.3447 30.3286 90.7507 30.6646 91.068C31.0099 91.3853 31.4346 91.544 31.9386 91.544C32.4519 91.544 32.8673 91.39 33.1846 91.082C33.5113 90.774 33.6746 90.382 33.6746 89.906C33.6746 89.43 33.5113 89.038 33.1846 88.73C32.8579 88.4127 32.4379 88.254 31.9246 88.254ZM38.342 89.976L41.632 86H42.976V93H41.212V89.024L37.922 93H36.578V86H38.342V89.976ZM49.8947 89.976L53.1847 86H54.5287V93H52.7647V89.024L49.4747 93H48.1307V86H49.8947V89.976ZM64.4154 93.196C62.9501 93.196 61.7321 92.706 60.7614 91.726C59.8001 90.7553 59.3194 89.5467 59.3194 88.1C59.3194 86.644 59.8001 85.4353 60.7614 84.474C61.7321 83.494 62.9501 83.004 64.4154 83.004C65.3021 83.004 66.1188 83.214 66.8654 83.634C67.6214 84.0447 68.2094 84.6047 68.6294 85.314L66.9634 86.28C66.7208 85.8413 66.3754 85.5007 65.9274 85.258C65.4794 85.006 64.9754 84.88 64.4154 84.88C63.4634 84.88 62.6934 85.1787 62.1054 85.776C61.5268 86.3827 61.2374 87.1573 61.2374 88.1C61.2374 89.0333 61.5268 89.8033 62.1054 90.41C62.6934 91.0073 63.4634 91.306 64.4154 91.306C64.9754 91.306 65.4794 91.1847 65.9274 90.942C66.3848 90.69 66.7301 90.3493 66.9634 89.92L68.6294 90.886C68.2094 91.5953 67.6214 92.16 66.8654 92.58C66.1188 92.9907 65.3021 93.196 64.4154 93.196ZM69.8416 86H76.2396V93H74.4336V87.694H71.6476V93H69.8416V86ZM83.8584 92.132C83.149 92.8413 82.2717 93.196 81.2264 93.196C80.181 93.196 79.3037 92.8413 78.5944 92.132C77.885 91.4227 77.5304 90.5453 77.5304 89.5C77.5304 88.464 77.885 87.5913 78.5944 86.882C79.313 86.1633 80.1904 85.804 81.2264 85.804C82.2624 85.804 83.1397 86.1633 83.8584 86.882C84.577 87.6007 84.9364 88.4733 84.9364 89.5C84.9364 90.536 84.577 91.4133 83.8584 92.132ZM79.8684 90.886C80.2324 91.25 80.685 91.432 81.2264 91.432C81.7677 91.432 82.2204 91.25 82.5844 90.886C82.9484 90.522 83.1304 90.06 83.1304 89.5C83.1304 88.94 82.9484 88.478 82.5844 88.114C82.2204 87.75 81.7677 87.568 81.2264 87.568C80.685 87.568 80.2324 87.75 79.8684 88.114C79.5137 88.4873 79.3364 88.9493 79.3364 89.5C79.3364 90.0507 79.5137 90.5127 79.8684 90.886ZM90.2809 85.804C91.2235 85.804 92.0262 86.1633 92.6889 86.882C93.3609 87.6007 93.6969 88.4733 93.6969 89.5C93.6969 90.5453 93.3609 91.4227 92.6889 92.132C92.0355 92.8413 91.2329 93.196 90.2809 93.196C89.3009 93.196 88.5449 92.8553 88.0129 92.174V95.8H86.2069V86H88.0129V86.826C88.5449 86.1447 89.3009 85.804 90.2809 85.804ZM88.5589 90.928C88.9229 91.292 89.3849 91.474 89.9449 91.474C90.5049 91.474 90.9669 91.292 91.3309 90.928C91.7042 90.5547 91.8909 90.0787 91.8909 89.5C91.8909 88.9213 91.7042 88.45 91.3309 88.086C90.9669 87.7127 90.5049 87.526 89.9449 87.526C89.3849 87.526 88.9229 87.7127 88.5589 88.086C88.1949 88.45 88.0129 88.9213 88.0129 89.5C88.0129 90.0787 88.1949 90.5547 88.5589 90.928ZM94.0111 86H100.213V87.736H98.0291V93H96.2231V87.736H94.0111V86Z" fill="#4A4A4A"/>
</g>
</svg>
