<svg width="109" height="98" viewBox="0 0 109 98" fill="none" xmlns="http://www.w3.org/2000/svg">
<g opacity="0.33">
<rect x="17" width="75" height="75" rx="20" fill="#FF9E83"/>
<path fill-rule="evenodd" clip-rule="evenodd" d="M72.1499 56.4417H74.3832V56.45C74.8434 56.45 75.2165 56.8231 75.2165 57.2833C75.2165 57.7436 74.8434 58.1167 74.3832 58.1167H37.6165C37.1563 58.1167 36.7832 57.7436 36.7832 57.2833C36.7832 56.8231 37.1563 56.45 37.6165 56.45H39.8499V55.825C39.8545 51.5711 43.3043 48.125 47.5582 48.125H48.4999L48.1999 47.5833C48.051 47.3255 48.051 47.0078 48.1999 46.75L49.3999 44.6667C47.3245 42.8895 46.0909 40.3225 45.9999 37.5917C44.0635 37.276 42.6254 35.6279 42.5749 33.6667V32.6083C42.6112 31.2906 43.707 30.2507 45.0249 30.2833H45.9999V29.375H44.7415C43.3514 29.2966 42.2644 28.1465 42.2644 26.7542C42.2644 25.3619 43.3514 24.2118 44.7415 24.1333H46.8332V19.8C46.8314 18.5355 47.4416 17.3482 48.4708 16.6135C49.5001 15.8788 50.8212 15.6875 52.0165 16.1L54.7165 17C55.5487 17.2832 56.4511 17.2832 57.2832 17L59.9915 16.1C61.1859 15.6908 62.5043 15.8838 63.5313 16.6181C64.5583 17.3524 65.1674 18.5375 65.1665 19.8V24.1333H67.2665C68.6566 24.2118 69.7437 25.3619 69.7437 26.7542C69.7437 28.1465 68.6566 29.2966 67.2665 29.375H65.9999V30.2833H66.9749C68.2927 30.2507 69.3885 31.2906 69.4249 32.6083V33.6667C69.3744 35.6279 67.9362 37.276 65.9999 37.5917C65.9091 40.3267 64.6721 42.8974 62.5915 44.675L63.7915 46.7583C63.9404 47.0162 63.9404 47.3338 63.7915 47.5917L63.4999 48.1167H63.7665H64.4415C68.6955 48.1167 72.1453 51.5627 72.1499 55.8167V56.4417ZM44.2415 33.6667C44.2827 34.7059 44.9953 35.5975 45.9999 35.8667V31.95H45.0249C44.627 31.9163 44.2768 32.2106 44.2415 32.6083V33.6667ZM62.0999 47.175L59.5249 51.8917L57.1999 49.575L61.2999 45.8L62.0999 47.175ZM67.7582 32.6083C67.7229 32.2106 67.3727 31.9163 66.9749 31.95H65.9999V35.8667C67.0045 35.5975 67.717 34.7059 67.7582 33.6667V32.6083ZM48.4999 19.8C48.4946 19.0739 48.8467 18.3915 49.4415 17.975C50.0308 17.5519 50.7885 17.4401 51.4749 17.675L54.1665 18.6C55.3503 19.0001 56.6328 19.0001 57.8165 18.6L60.5082 17.675C61.1946 17.4401 61.9522 17.5519 62.5415 17.975C63.1427 18.3878 63.5014 19.0708 63.4999 19.8V21.1167H48.4999V19.8ZM63.4999 22.7833H48.4999V24.1333H63.4999V22.7833ZM44.7332 27.7083C44.2407 27.6623 43.8641 27.2489 43.8641 26.7542C43.8641 26.2595 44.2407 25.8461 44.7332 25.8H67.2332C67.7257 25.8461 68.1023 26.2595 68.1023 26.7542C68.1023 27.2489 67.7257 27.6623 67.2332 27.7083H44.7332ZM47.6665 29.375V37.3C47.6665 41.9024 51.3975 45.6334 55.9999 45.6334C60.6022 45.6334 64.3332 41.9024 64.3332 37.3V29.375H47.6665ZM55.9999 47.1167C56.5215 47.1161 57.0423 47.0771 57.5582 47L55.9999 48.4167L54.4415 47C54.9574 47.0771 55.4783 47.1161 55.9999 47.1167ZM52.4749 51.9333L54.7999 49.6167L50.7332 45.8417L49.8999 47.2167L52.4749 51.9333ZM53.2249 56.4834H41.5165V55.8584C41.5211 52.5249 44.2247 49.825 47.5582 49.825H48.4415C48.7544 49.8223 49.0665 49.7944 49.3749 49.7417L51.5499 53.6667C51.6729 53.899 51.8984 54.0596 52.1582 54.1H52.2832C52.503 54.0969 52.7127 54.007 52.8665 53.85L53.0499 53.675C53.1496 54.0309 53.4719 54.2786 53.8415 54.2834L53.2249 56.4834ZM55.6082 54.3333L54.9665 56.4833H57.0332L56.3915 54.3333H55.6082ZM57.4665 52.6667H54.5499L54.4832 52.2917L55.9999 50.7333L57.5249 52.25L57.4665 52.6667ZM58.7749 56.4833H70.4915L70.4999 55.8167C70.4953 52.4832 67.7917 49.7833 64.4582 49.7833H63.7832C63.4077 49.7793 63.0336 49.7374 62.6665 49.6583L60.4249 53.7167C60.3018 53.949 60.0763 54.1096 59.8165 54.15H59.6915C59.4717 54.1469 59.2621 54.057 59.1082 53.9L58.9249 53.725C58.8251 54.0809 58.5028 54.3286 58.1332 54.3333L58.7749 56.4833Z" fill="#3D3D63"/>
<path d="M52.734 39.0833C52.5302 39.1711 52.3698 39.3367 52.2885 39.5432C52.2071 39.7496 52.2115 39.9801 52.3006 40.1833C52.9403 41.6573 54.3938 42.6111 56.0006 42.6111C57.6075 42.6111 59.061 41.6573 59.7006 40.1833C59.8893 39.7599 59.6991 39.2637 59.2756 39.075C58.8522 38.8863 58.356 39.0766 58.1673 39.5C57.7951 40.3659 56.9431 40.927 56.0006 40.927C55.0582 40.927 54.2062 40.3659 53.834 39.5C53.6446 39.0818 53.1528 38.8956 52.734 39.0833Z" fill="#3D3D63"/>
<path d="M52.3001 34.1667C52.7604 34.1667 53.1335 33.7936 53.1335 33.3334V32.375C53.1335 31.9148 52.7604 31.5417 52.3001 31.5417C51.8399 31.5417 51.4668 31.9148 51.4668 32.375V33.3334C51.4668 33.7936 51.8399 34.1667 52.3001 34.1667Z" fill="#3D3D63"/>
<path d="M59.7005 34.1667C60.1608 34.1667 60.5339 33.7936 60.5339 33.3334V32.375C60.5339 31.9148 60.1608 31.5417 59.7005 31.5417C59.2403 31.5417 58.8672 31.9148 58.8672 32.375V33.3334C58.8672 33.7936 59.2403 34.1667 59.7005 34.1667Z" fill="#3D3D63"/>
<path d="M6.342 86.91H8.162C9.12333 86.91 9.90267 87.1947 10.5 87.764C11.1067 88.324 11.41 89.052 11.41 89.948C11.41 90.844 11.1067 91.5813 10.5 92.16C9.90267 92.72 9.12333 93 8.162 93H4.41V83.2H10.57V85.048H6.342V86.91ZM6.342 91.194H8.162C8.554 91.194 8.87133 91.082 9.114 90.858C9.366 90.634 9.492 90.3307 9.492 89.948C9.492 89.5653 9.366 89.2667 9.114 89.052C8.87133 88.828 8.554 88.716 8.162 88.716H6.342V91.194ZM14.2795 89.976L17.5695 86H18.9135V93H17.1495V89.024L13.8595 93H12.5155V86H14.2795V89.976ZM24.6702 89.43C25.3795 89.7753 25.7342 90.3307 25.7342 91.096C25.7342 91.712 25.4822 92.216 24.9782 92.608C24.4742 93 23.7835 93.196 22.9062 93.196C21.4875 93.196 20.5215 92.636 20.0082 91.516L21.4782 90.648C21.7022 91.2827 22.1829 91.6 22.9202 91.6C23.2562 91.6 23.5129 91.5347 23.6902 91.404C23.8769 91.2733 23.9702 91.096 23.9702 90.872C23.9702 90.4427 23.6949 90.228 23.1442 90.228H22.1502V88.688H22.9062C23.4475 88.688 23.7182 88.4733 23.7182 88.044C23.7182 87.8387 23.6389 87.6753 23.4802 87.554C23.3215 87.4327 23.1115 87.372 22.8502 87.372C22.2529 87.372 21.8189 87.666 21.5482 88.254L20.0922 87.414C20.6242 86.3407 21.5342 85.804 22.8222 85.804C23.6249 85.804 24.2595 86.0093 24.7262 86.42C25.2022 86.8307 25.4402 87.3207 25.4402 87.89C25.4402 88.5713 25.1835 89.0847 24.6702 89.43ZM31.4629 88.646V86H33.2689V93H31.4629V90.34H28.6769V93H26.8709V86H28.6769V88.646H31.4629ZM41.7277 90.242H36.4497C36.683 91.1193 37.341 91.558 38.4237 91.558C39.1143 91.558 39.637 91.3247 39.9917 90.858L41.4477 91.698C40.757 92.6967 39.7397 93.196 38.3957 93.196C37.2383 93.196 36.3097 92.846 35.6097 92.146C34.9097 91.446 34.5597 90.564 34.5597 89.5C34.5597 88.4547 34.905 87.5773 35.5957 86.868C36.277 86.1587 37.1637 85.804 38.2557 85.804C39.2917 85.804 40.1363 86.1587 40.7897 86.868C41.4617 87.5773 41.7977 88.4547 41.7977 89.5C41.7977 89.696 41.7743 89.9433 41.7277 90.242ZM36.4217 88.842H39.9917C39.889 88.3847 39.679 88.0347 39.3617 87.792C39.0537 87.5493 38.685 87.428 38.2557 87.428C37.7703 87.428 37.369 87.554 37.0517 87.806C36.7343 88.0487 36.5243 88.394 36.4217 88.842ZM46.3357 93.196C45.2811 93.196 44.3991 92.8413 43.6897 92.132C42.9897 91.4227 42.6397 90.5453 42.6397 89.5C42.6397 88.4547 42.9897 87.5773 43.6897 86.868C44.3991 86.1587 45.2811 85.804 46.3357 85.804C47.0171 85.804 47.6377 85.9673 48.1977 86.294C48.7577 86.6207 49.1824 87.0593 49.4717 87.61L47.9177 88.52C47.7777 88.2307 47.5631 88.002 47.2737 87.834C46.9937 87.666 46.6764 87.582 46.3217 87.582C45.7804 87.582 45.3324 87.764 44.9777 88.128C44.6231 88.4827 44.4457 88.94 44.4457 89.5C44.4457 90.0413 44.6231 90.4987 44.9777 90.872C45.3324 91.2267 45.7804 91.404 46.3217 91.404C46.6857 91.404 47.0077 91.3247 47.2877 91.166C47.5771 90.998 47.7917 90.7693 47.9317 90.48L49.4997 91.376C49.1917 91.936 48.7531 92.3793 48.1837 92.706C47.6237 93.0327 47.0077 93.196 46.3357 93.196ZM55.7736 89.976L59.0636 86H60.4076V93H58.6436V89.024L55.3536 93H54.0096V86H55.7736V89.976ZM68.5723 90.704L70.1263 86H72.0583L69.5103 93C68.801 94.9693 67.569 95.9027 65.8143 95.8V94.12C66.2903 94.1293 66.6637 94.0407 66.9343 93.854C67.2143 93.6673 67.4383 93.3547 67.6063 92.916L64.7783 86H66.6963L68.5723 90.704ZM75.9764 93.196C74.9217 93.196 74.0397 92.8413 73.3304 92.132C72.6304 91.4227 72.2804 90.5453 72.2804 89.5C72.2804 88.4547 72.6304 87.5773 73.3304 86.868C74.0397 86.1587 74.9217 85.804 75.9764 85.804C76.6577 85.804 77.2784 85.9673 77.8384 86.294C78.3984 86.6207 78.823 87.0593 79.1124 87.61L77.5584 88.52C77.4184 88.2307 77.2037 88.002 76.9144 87.834C76.6344 87.666 76.317 87.582 75.9624 87.582C75.421 87.582 74.973 87.764 74.6184 88.128C74.2637 88.4827 74.0864 88.94 74.0864 89.5C74.0864 90.0413 74.2637 90.4987 74.6184 90.872C74.973 91.2267 75.421 91.404 75.9624 91.404C76.3264 91.404 76.6484 91.3247 76.9284 91.166C77.2177 90.998 77.4324 90.7693 77.5724 90.48L79.1404 91.376C78.8324 91.936 78.3937 92.3793 77.8244 92.706C77.2644 93.0327 76.6484 93.196 75.9764 93.196ZM80.4618 86H86.0058V93H84.1998V87.736H82.2678V90.074C82.2678 92.23 81.2832 93.2053 79.3138 93V91.306C79.6872 91.3993 79.9718 91.334 80.1678 91.11C80.3638 90.886 80.4618 90.508 80.4618 89.976V86ZM90.6524 90.704L92.2064 86H94.1384L91.5904 93C90.8811 94.9693 89.6491 95.9027 87.8944 95.8V94.12C88.3704 94.1293 88.7437 94.0407 89.0144 93.854C89.2944 93.6673 89.5184 93.3547 89.6864 92.916L86.8584 86H88.7764L90.6524 90.704ZM94.9979 86H99.7859V87.736H96.8039V93H94.9979V86ZM102.518 89.976L105.808 86H107.152V93H105.388V89.024L102.098 93H100.754V86H102.518V89.976Z" fill="#4A4A4A"/>
</g>
</svg>
